<svg xmlns="http://www.w3.org/2000/svg" version="1.1" xmlns:xlink="http://www.w3.org/1999/xlink" width="1500" height="1500" viewBox="0 0 1500 1500"><rect width="1500" height="1500" x="0" y="0" id="background" stroke="transparent" fill="#293040"></rect><svg xml:space="preserve" width="1000" height="1000" data-version="2" data-id="lg_cFNMcO0q2iockLoUgq" viewBox="0 0 167 360" x="250" y="250"><rect width="100%" height="100%" fill="transparent"></rect><path fill="#d5b263" d="m160.59 7.35 2.01 1.81q2.02 1.8 2.02 7.31t-3.82 9.33h-41.55v225.14q0 50.46-17.81 77.38-17.81 26.93-49.61 26.93-24.17 0-37.31-16.54t-13.14-46q0-29.47 8.26-54.28 8.27-24.8 22.26-43.03 23.32-30.53 49.19-50.03V25.8H46.74q-15.26 0-15.26-12.3 0-5.51 3.82-9.33l114.05-.42q7.21 0 11.24 3.6M51.41 338.71q29.68 0 29.68-89.04v-85.65q-61.48 56.82-61.48 128.05 0 23.32 9.33 34.98 9.32 11.66 22.47 11.66"></path><rect width="163.24" height="351.5" x="-81.62" y="-175.75" fill="none" rx="0" ry="0" transform="translate(83.5 180)"></rect></svg></svg>